<svg width="45" height="13" viewBox="0 0 45 13" fill="none" xmlns="http://www.w3.org/2000/svg">
<mask id="mask0_2001_438" style="mask-type:luminance" maskUnits="userSpaceOnUse" x="0" y="0" width="45" height="13">
<path d="M44.659 0H0V12.8043H44.659V0Z" fill="white"/>
</mask>
<g mask="url(#mask0_2001_438)">
<path d="M43.1731 1.29654C42.3883 0.580118 41.3576 0.133789 40.2098 0.133789H31.6008C31.6125 0.474384 31.6711 0.791504 31.7413 1.10862C31.7648 1.17911 31.7765 1.2496 31.8 1.32009C31.8116 1.34357 31.8116 1.37881 31.8234 1.40227C32.5378 3.66913 34.6579 5.32522 37.1527 5.32522H44.5435C44.5903 5.0668 44.6138 4.8084 44.6138 4.55C44.6138 3.25804 44.0516 2.107 43.1731 1.29654Z" fill="url(#paint0_linear_2001_438)"/>
<path d="M31.777 6.08838V12.6658H35.7828V8.96602H39.8122C41.9205 8.96602 43.7125 7.76803 44.4036 6.08838H31.777Z" fill="#006848"/>
<path d="M24.6902 1.46099L21.891 7.54504H21.6097V0.133789H17.6274V12.6778H21.0007C21.891 12.6778 22.6991 12.1609 23.0622 11.3506L25.8616 5.2665H26.1426V12.6778H30.1249V0.133789H26.7517C25.8616 0.133789 25.0651 0.650607 24.6902 1.46099Z" fill="#006848"/>
<path d="M6.1608 1.77811L7.82403 7.54504H8.10514L9.75663 1.77811C10.0378 0.803274 10.9279 0.133789 11.9469 0.133789H15.9176V12.6778H11.9353V5.2665H11.6542L9.38188 12.6778H6.53562L4.26332 5.2665H3.98221V12.6778H-0.000160217V0.133789H3.97049C4.98952 0.133789 5.8797 0.803274 6.1608 1.77811Z" fill="#006848"/>
</g>
<defs>
<linearGradient id="paint0_linear_2001_438" x1="31.5954" y1="2.73293" x2="44.6097" y2="2.73293" gradientUnits="userSpaceOnUse">
<stop offset="0.00537635" stop-color="#00AFFF"/>
<stop offset="1" stop-color="#1F5BD7"/>
</linearGradient>
</defs>
</svg>
