<svg width="36" height="20" viewBox="0 0 36 20" fill="none" xmlns="http://www.w3.org/2000/svg">
<mask id="mask0_2001_446" style="mask-type:luminance" maskUnits="userSpaceOnUse" x="0" y="0" width="36" height="20">
<path d="M35.3235 0H0V19.0423H35.3235V0Z" fill="white"/>
</mask>
<g mask="url(#mask0_2001_446)">
<path d="M4.7921 9.51904L2.30642 10.9522L0 14.9462L9.40855 9.51904H4.7921Z" fill="#874691"/>
<path d="M11.8942 5.42725L9.40847 6.86043L7.10205 10.8544L16.507 5.42725H11.8942Z" fill="#DA1844"/>
<path d="M9.40847 3.99393L7.10205 0V8.18808V10.8542V19.0423L9.40847 15.0484V3.99393Z" fill="#F9B229"/>
<path d="M7.10205 0L9.40847 3.99393L11.8942 5.42711H16.507L7.10205 0Z" fill="#F07F1A"/>
<path d="M7.10205 8.18848V19.0427L9.40847 15.0488V12.1789L7.10205 8.18848Z" fill="#72B22C"/>
<path d="M11.8942 13.6147L9.40847 15.0479L7.10205 19.0419L16.507 13.6147H11.8942Z" fill="#00743E"/>
<path d="M0 4.09229V14.9465L2.30642 10.9526V8.08623L0 4.09229Z" fill="#5F5A94"/>
<path d="M7.10213 8.18809V8.1916L0 4.09229L2.30642 8.08623L11.8942 13.6152H16.5071L7.10213 8.18809Z" fill="#0D90CD"/>
<path d="M35.2363 7.14844V12.0346H33.5206V8.6027H31.8645V12.0346H30.1489V7.14844H35.2363Z" fill="#FFFAFF"/>
<path d="M29.3014 9.74757C29.3261 11.1527 28.1801 12.1749 26.5557 12.1749C25.0156 12.1749 23.7183 11.244 23.7183 8.97829C23.7183 7.05332 24.9488 5.4656 26.7665 5.4375H29.3014L28.4964 6.88473H26.9494C26.5662 6.87232 26.1923 7.00171 25.8989 7.2481C25.6056 7.49447 25.4139 7.84044 25.3602 8.21953C25.8487 7.80114 26.4748 7.57837 27.1181 7.59429C27.6915 7.60301 28.2395 7.83184 28.6487 8.23341C29.058 8.63495 29.2967 9.17841 29.3154 9.75108M27.5999 9.86349C27.6021 9.72842 27.5775 9.59421 27.5272 9.46878C27.477 9.34336 27.4021 9.2292 27.3071 9.13301C27.2124 9.03683 27.0991 8.96058 26.9742 8.90867C26.8494 8.85675 26.7155 8.83027 26.5802 8.83076C26.4407 8.82738 26.3021 8.85235 26.1726 8.90411C26.0431 8.95588 25.9255 9.03338 25.8269 9.13191C25.7282 9.23043 25.6507 9.34797 25.5989 9.47734C25.5471 9.60672 25.522 9.74525 25.5253 9.88457C25.5307 10.1485 25.6373 10.4003 25.8233 10.5879C26.0089 10.7755 26.2598 10.8846 26.5241 10.8927C26.6606 10.8964 26.7966 10.8729 26.9239 10.8235C27.0512 10.7741 27.1674 10.6997 27.2656 10.6048C27.3639 10.51 27.4422 10.3965 27.4959 10.271C27.5495 10.1455 27.5778 10.0105 27.5786 9.87403" fill="#FFFAFF"/>
<path d="M22.3925 10.3667C21.9869 10.613 21.5207 10.7419 21.046 10.739C20.7444 10.729 20.4584 10.6027 20.248 10.3866C20.0375 10.1705 19.919 9.88132 19.9174 9.57981C19.9192 9.27773 20.038 8.98809 20.2493 8.77186C20.4604 8.55564 20.7474 8.42972 21.0496 8.42062C21.5235 8.41539 21.9892 8.5445 22.3925 8.79297L23.0324 7.64081C22.4927 7.22311 21.8272 7.00027 21.1445 7.00852C19.4674 7.00852 18.3142 8.37144 18.3142 9.57981C18.3142 10.9849 19.594 12.1687 21.1269 12.1757C21.8162 12.1875 22.4886 11.9632 23.0324 11.5399L22.3925 10.3667Z" fill="#FFFAFF"/>
</g>
</svg>
